{
  "accessors": [
    {
      "bufferView": 2,
      "componentType": 5126,
      "count": 1829,
      "max": [
        1.2019972801208496,
        5.422256946563721,
        0.027062594890594482
      ],
      "min": [
        -9.736541748046875,
        -5.388826847076416,
        -11.024965286254883
      ],
      "type": "VEC3"
    },
    {
      "bufferView": 2,
      "byteOffset": 21948,
      "componentType": 5126,
      "count": 1829,
      "max": [
        0.9999751448631287,
        0.9999824166297913,
        0.9996017813682556
      ],
      "min": [
        -0.9996702075004578,
        -0.9967436790466309,
        -0.9998736381530762
      ],
      "type": "VEC3"
    },
    {
      "bufferView": 3,
      "componentType": 5126,
      "count": 1829,
      "max": [
        0.9982550144195557,
        0.9999944567680359,
        0.9985901713371277,
        1.0
      ],
      "min": [
        -0.9981971383094788,
        -0.9992136359214783,
        -0.9999212622642517,
        -1.0
      ],
      "type": "VEC4"
    },
    {
      "bufferView": 1,
      "componentType": 5126,
      "count": 1829,
      "max": [
        0.9873459339141846,
        0.9873459339141846
      ],
      "min": [
        0.012654125690460205,
        -0.007576286792755127
      ],
      "type": "VEC2"
    },
    {
      "bufferView": 0,
      "componentType": 5125,
      "count": 8235,
      "type": "SCALAR"
    }
  ],
  "asset": {
    "extras": {
      "author": "wojciechmiedziocha (https://sketchfab.com/wojciechmiedziocha)",
      "license": "CC-BY-4.0 (http://creativecommons.org/licenses/by/4.0/)",
      "source": "https://sketchfab.com/3d-models/marx-head-64dad84f78b44a2d8dae0dfb1c3792a4",
      "title": "Marx Head"
    },
    "generator": "Sketchfab-12.68.0",
    "version": "2.0"
  },
  "bufferViews": [
    {
      "buffer": 0,
      "byteLength": 32940,
      "name": "floatBufferViews",
      "target": 34963
    },
    {
      "buffer": 0,
      "byteLength": 14632,
      "byteOffset": 32940,
      "byteStride": 8,
      "name": "floatBufferViews",
      "target": 34962
    },
    {
      "buffer": 0,
      "byteLength": 43896,
      "byteOffset": 47572,
      "byteStride": 12,
      "name": "floatBufferViews",
      "target": 34962
    },
    {
      "buffer": 0,
      "byteLength": 29264,
      "byteOffset": 91468,
      "byteStride": 16,
      "name": "floatBufferViews",
      "target": 34962
    }
  ],
  "buffers": [
    {
      "byteLength": 120732,
      "uri": "scene.bin"
    }
  ],
  "extensionsUsed": [
    "KHR_materials_clearcoat"
  ],
  "images": [
    {
      "uri": "textures/Marx_Mat_baseColor.png"
    },
    {
      "uri": "textures/Marx_Mat_metallicRoughness.png"
    },
    {
      "uri": "textures/Marx_Mat_normal.png"
    }
  ],
  "materials": [
    {
      "doubleSided": true,
      "extensions": {
        "KHR_materials_clearcoat": {
          "clearcoatFactor": 0.0078125,
          "clearcoatRoughnessFactor": 0.04
        }
      },
      "name": "Marx_Mat",
      "normalTexture": {
        "index": 2
      },
      "occlusionTexture": {
        "index": 1
      },
      "pbrMetallicRoughness": {
        "baseColorTexture": {
          "index": 0
        },
        "metallicRoughnessTexture": {
          "index": 1
        }
      }
    }
  ],
  "meshes": [
    {
      "name": "Marx_Head_Marx_Mat_0",
      "primitives": [
        {
          "attributes": {
            "NORMAL": 1,
            "POSITION": 0,
            "TANGENT": 2,
            "TEXCOORD_0": 3
          },
          "indices": 4,
          "material": 0,
          "mode": 4
        }
      ]
    }
  ],
  "nodes": [
    {
      "children": [
        1
      ],
      "matrix": [
        0.9943408370018005,
        -0.10623687505722046,
        -2.358932495055043e-17,
        0.0,
        0.0,
        2.220446049250313e-16,
        -1.0,
        0.0,
        0.10623687505722046,
        0.9943408370018005,
        2.2078801831288975e-16,
        0.0,
        -45.121299743652344,
        -33.85354232788086,
        -1.2412121585171031e-05,
        1.0
      ],
      "name": "Sketchfab_model"
    },
    {
      "children": [
        2
      ],
      "matrix": [
        1.0,
        0.0,
        0.0,
        0.0,
        0.0,
        0.0,
        1.0,
        0.0,
        0.0,
        -1.0,
        0.0,
        0.0,
        0.0,
        0.0,
        0.0,
        1.0
      ],
      "name": "9b3f6f35bfd64397b1725214f9f8065c.fbx"
    },
    {
      "children": [
        3
      ],
      "name": "RootNode"
    },
    {
      "children": [
        4
      ],
      "matrix": [
        7.549789948768648e-06,
        -99.99999999999973,
        0.0,
        0.0,
        7.549789954319763e-06,
        5.551115123125783e-13,
        -99.99999999999973,
        0.0,
        99.99999999999945,
        7.549789954319763e-06,
        7.549789948768648e-06,
        0.0,
        209.57899475097656,
        -20.132204055786133,
        -7.084191799163818,
        1.0
      ],
      "name": "Marx_Head"
    },
    {
      "mesh": 0,
      "name": "Marx_Head_Marx_Mat_0"
    }
  ],
  "samplers": [
    {
      "magFilter": 9729,
      "minFilter": 9987,
      "wrapS": 10497,
      "wrapT": 10497
    }
  ],
  "scene": 0,
  "scenes": [
    {
      "name": "Sketchfab_Scene",
      "nodes": [
        0
      ]
    }
  ],
  "textures": [
    {
      "sampler": 0,
      "source": 0
    },
    {
      "sampler": 0,
      "source": 1
    },
    {
      "sampler": 0,
      "source": 2
    }
  ]
}
